<svg width="619" height="419" viewBox="0 0 619 419" fill="none" xmlns="http://www.w3.org/2000/svg">
<ellipse cx="358.5" cy="381" rx="201.5" ry="38" fill="black" fill-opacity="0.1"/>
<g clip-path="url(#clip0_1_5231)">
<path d="M240.494 409.821C353.205 409.821 482.654 326.764 529.627 224.308C576.6 121.852 523.309 38.7949 410.598 38.7949C297.888 38.7949 168.438 121.852 121.465 224.308C74.4924 326.764 127.783 409.821 240.494 409.821Z" fill="#0066DD"/>
<path d="M95 328.5L132.5 370L151 357.5L121.5 316L95 328.5Z" fill="#0066DD"/>
<path d="M520 80.5L482.5 39L464 51.5L493.5 93L520 80.5Z" fill="#0066DD"/>
</g>
<g clip-path="url(#clip1_1_5231)">
<path d="M207.566 373.263C320.276 373.263 449.726 290.206 496.699 187.75C543.672 85.2938 490.381 2.23669 377.67 2.23669C264.959 2.23669 135.51 85.2938 88.5369 187.75C41.5639 290.206 94.8549 373.263 207.566 373.263Z" fill="white"/>
<path d="M306.12 161.918L331.081 107.474H247.486L204.784 133.734H126.916" stroke="#0066DD" stroke-width="4.98" stroke-miterlimit="10"/>
<path d="M172.375 162.39H106.519" stroke="#0066DD" stroke-width="4.98" stroke-miterlimit="10"/>
<path d="M162.715 185.723L145.776 176.06H98.4365" stroke="#0066DD" stroke-width="4.98" stroke-miterlimit="10"/>
<path d="M152.255 207.406L138.023 193.265H90.5485" stroke="#0066DD" stroke-width="4.98" stroke-miterlimit="10"/>
<path d="M356.61 207.878L370.725 247.002H454.57" stroke="#0066DD" stroke-width="4.98" stroke-miterlimit="10"/>
<path d="M343.581 211.413L360.97 259.494H444.695" stroke="#0066DD" stroke-width="4.98" stroke-miterlimit="10"/>
<path d="M327.787 210.235L349.891 271.042H433.696" stroke="#0066DD" stroke-width="4.98" stroke-miterlimit="10"/>
<path d="M284.271 207.878L248.865 285.419H416.215" stroke="#0066DD" stroke-width="4.98" stroke-miterlimit="10"/>
<path d="M139.057 172.289H119.352L115.786 180.066H135.491L139.057 172.289Z" fill="#0066DD"/>
<path d="M299.882 103.703H280.176L276.719 111.245H296.424L299.882 103.703Z" fill="#0066DD"/>
<path d="M426.59 242.995H406.885L403.427 250.537H423.133L426.59 242.995Z" fill="#0066DD"/>
<path d="M295.046 281.648H275.341L271.775 289.426H291.48L295.046 281.648Z" fill="#0066DD"/>
<path d="M486.699 187.75C442.027 285.186 318.921 364.173 211.733 364.173C104.545 364.173 53.8658 285.186 98.537 187.75C143.208 90.3141 266.314 11.3269 373.502 11.3269C480.69 11.3269 531.37 90.3141 486.699 187.75Z" stroke="#0066DD" stroke-width="20"/>
<path d="M205.504 160.052H217.072L195.1 207.978L183.207 213.01H157.333L150.055 207.978L172.027 160.052H183.595L163.793 203.244H185.693L205.504 160.052Z" fill="#0066DD"/>
<path d="M218.825 185.968L228.573 164.707L240.468 159.675H261.375L268.653 164.707L264.073 174.697H252.505L255.263 168.681H238.322L232.571 181.226H251.495L258.772 186.26L248.819 207.97L236.926 213.002H215.192L207.914 207.97L212.495 197.977H224.063L221.305 203.993H239.074L245.034 190.992H226.11L218.825 185.968Z" fill="#0066DD"/>
<path d="M307.658 207.6L295.766 212.633H260.316L284.422 160.052H319.872L327.151 165.084L307.658 207.6ZM291.858 169.066L276.016 203.618H297.913L313.754 169.066H291.858Z" fill="#0066DD"/>
<path d="M357.037 197.235H368.605L363.68 207.978L351.787 213.01H328.402L321.12 207.978L340.959 164.707L352.854 159.675H376.24L383.518 164.707L378.593 175.449H367.025L370.125 168.689H350.704L334.517 203.996H353.937L357.037 197.235Z" fill="#0066DD"/>
<path d="M409.386 159.675H427.01L409.483 181.715H414.929L419.532 175.986H437.529L424.092 192.25L374.946 230.601L406.299 192.296H382.573L409.386 159.675Z" fill="#0066DD"/>
</g>
<defs>
<clipPath id="clip0_1_5231">
<rect width="413.08" height="413.08" fill="white" transform="matrix(1 0 -0.416757 0.909018 205.082 36.5582)"/>
</clipPath>
<clipPath id="clip1_1_5231">
<rect width="413.08" height="413.08" fill="white" transform="matrix(1 0 -0.416757 0.909018 172.154 0)"/>
</clipPath>
</defs>
</svg>
