<svg width="558" height="651" viewBox="0 0 558 651" fill="none" xmlns="http://www.w3.org/2000/svg">
<path d="M98.3102 644.862C100.503 646.09 100.503 648.194 98.3102 649.422C96.1177 650.65 92.5222 650.65 90.3297 649.422C88.1372 648.194 88.1372 646.09 90.3297 644.862C92.6099 643.546 96.1177 643.546 98.3102 644.862Z" fill="#191411"/>
<path d="M119.096 632.846C121.289 634.073 121.289 636.178 119.096 637.406C116.904 638.634 113.308 638.634 111.116 637.406C108.923 636.178 108.923 634.073 111.116 632.846C113.396 631.53 116.904 631.53 119.096 632.846Z" fill="#191411"/>
<path d="M139.882 620.832C142.075 622.06 142.075 624.164 139.882 625.392C137.69 626.62 134.094 626.62 131.902 625.392C129.709 624.164 129.709 622.06 131.902 620.832C134.182 619.516 137.69 619.516 139.882 620.832Z" fill="#191411"/>
<path d="M156.72 614.34C159.82 614.34 162.333 612.888 162.333 611.095C162.333 609.303 159.82 607.851 156.72 607.851C153.62 607.851 151.107 609.303 151.107 611.095C151.107 612.888 153.62 614.34 156.72 614.34Z" fill="#191411"/>
<path d="M56.7382 644.861C58.9307 646.089 58.9307 648.194 56.7382 649.421C54.5457 650.649 50.9499 650.649 48.7574 649.421C46.5649 648.194 46.5649 646.089 48.7574 644.861C50.9499 643.633 54.5457 643.546 56.7382 644.861Z" fill="#191411"/>
<path d="M77.5243 632.846C79.7168 634.073 79.7168 636.178 77.5243 637.406C75.3318 638.634 71.7361 638.634 69.5436 637.406C67.351 636.178 67.351 634.073 69.5436 632.846C71.7361 631.53 75.3318 631.53 77.5243 632.846Z" fill="#191411"/>
<path d="M98.3102 620.832C100.503 622.06 100.503 624.164 98.3102 625.392C96.1177 626.62 92.5222 626.62 90.3297 625.392C88.1372 624.164 88.1372 622.06 90.3297 620.832C92.6099 619.516 96.1177 619.516 98.3102 620.832Z" fill="#191411"/>
<path d="M119.096 608.816C121.289 610.044 121.289 612.149 119.096 613.377C116.904 614.605 113.308 614.605 111.116 613.377C108.923 612.149 108.923 610.044 111.116 608.816C113.396 607.589 116.904 607.589 119.096 608.816Z" fill="#191411"/>
<path d="M139.882 596.8C142.075 598.028 142.075 600.133 139.882 601.361C137.69 602.589 134.094 602.589 131.902 601.361C129.709 600.133 129.709 598.028 131.902 596.8C134.182 595.573 137.69 595.573 139.882 596.8Z" fill="#191411"/>
<path d="M35.7809 632.671C37.9734 633.898 37.9734 636.003 35.7809 637.231C33.5884 638.459 29.9927 638.459 27.8001 637.231C25.6076 636.003 25.6076 633.898 27.8001 632.671C29.9927 631.443 33.5884 631.443 35.7809 632.671Z" fill="#191411"/>
<path d="M52.6188 626.269C55.7187 626.269 58.2318 624.816 58.2318 623.024C58.2318 621.232 55.7187 619.779 52.6188 619.779C49.5189 619.779 47.0061 621.232 47.0061 623.024C47.0061 624.816 49.5189 626.269 52.6188 626.269Z" fill="#191411"/>
<path d="M77.3486 608.728C79.5411 609.956 79.5411 612.06 77.3486 613.288C75.156 614.516 71.5603 614.516 69.3678 613.288C67.1753 612.06 67.1753 609.956 69.3678 608.728C71.5603 607.412 75.156 607.412 77.3486 608.728Z" fill="#191411"/>
<path d="M98.1347 596.714C100.327 597.942 100.327 600.047 98.1347 601.275C95.9422 602.502 92.3464 602.502 90.1539 601.275C87.9614 600.047 87.9614 597.942 90.1539 596.714C92.3464 595.399 95.9422 595.399 98.1347 596.714Z" fill="#191411"/>
<path d="M118.921 584.698C121.113 585.925 121.113 588.03 118.921 589.258C116.728 590.486 113.133 590.486 110.94 589.258C108.748 588.03 108.748 585.925 110.94 584.698C113.133 583.47 116.728 583.382 118.921 584.698Z" fill="#191411"/>
<path d="M14.9945 620.744C17.187 621.972 17.187 624.077 14.9945 625.304C12.802 626.532 9.20653 626.532 7.01401 625.304C4.8215 624.077 4.8215 621.972 7.01401 620.744C9.20653 619.429 12.802 619.429 14.9945 620.744Z" fill="#191411"/>
<path d="M35.7809 608.728C37.9734 609.956 37.9734 612.06 35.7809 613.288C33.5884 614.516 29.9927 614.516 27.8001 613.288C25.6076 612.06 25.6076 609.956 27.8001 608.728C29.9927 607.412 33.5884 607.412 35.7809 608.728Z" fill="#191411"/>
<path d="M56.5668 596.714C58.7593 597.942 58.7593 600.047 56.5668 601.275C54.3743 602.502 50.7785 602.502 48.586 601.275C46.3935 600.047 46.3935 597.942 48.586 596.714C50.7785 595.399 54.3743 595.399 56.5668 596.714Z" fill="#191411"/>
<path d="M73.4044 590.223C76.5043 590.223 79.0174 588.77 79.0174 586.978C79.0174 585.186 76.5043 583.733 73.4044 583.733C70.3046 583.733 67.7917 585.186 67.7917 586.978C67.7917 588.77 70.3046 590.223 73.4044 590.223Z" fill="#191411"/>
<path d="M98.1347 572.683C100.327 573.911 100.327 576.016 98.1347 577.243C95.9422 578.471 92.3464 578.471 90.1539 577.243C87.9614 576.016 87.9614 573.911 90.1539 572.683C92.3464 571.455 95.9422 571.455 98.1347 572.683Z" fill="#191411"/>
<path d="M14.9945 596.714C17.187 597.942 17.187 600.047 14.9945 601.275C12.802 602.502 9.20653 602.502 7.01401 601.275C4.8215 600.047 4.8215 597.942 7.01401 596.714C9.20653 595.399 12.802 595.399 14.9945 596.714Z" fill="#191411"/>
<path d="M35.7809 584.698C37.9734 585.926 37.9734 588.031 35.7809 589.259C33.5884 590.486 29.9927 590.486 27.8001 589.259C25.6076 588.031 25.6076 585.926 27.8001 584.698C29.9927 583.383 33.5884 583.383 35.7809 584.698Z" fill="#191411"/>
<path d="M56.5668 572.683C58.7593 573.911 58.7593 576.016 56.5668 577.243C54.3743 578.471 50.7785 578.471 48.586 577.243C46.3935 576.016 46.3935 573.911 48.586 572.683C50.7785 571.455 54.3743 571.455 56.5668 572.683Z" fill="#191411"/>
<path d="M7.01401 572.683C9.20653 571.455 12.802 571.455 14.9945 572.683C17.187 573.911 17.187 576.016 14.9945 577.243C12.802 578.471 9.20653 578.471 7.01401 577.243C4.8215 576.016 4.8215 573.911 7.01401 572.683C4.8215 573.911 9.20653 571.455 7.01401 572.683Z" fill="#191411"/>
<path d="M173.731 596.977C175.923 595.749 179.519 595.661 181.711 596.977C183.904 598.205 183.904 600.309 181.711 601.537C179.519 602.765 175.923 602.853 173.731 601.537C171.538 600.222 171.538 598.205 173.731 596.977Z" fill="#191411"/>
<path d="M202.497 584.874C204.69 586.102 204.69 588.207 202.497 589.435C200.305 590.662 196.709 590.662 194.517 589.435C192.324 588.207 192.324 586.102 194.517 584.874C196.709 583.647 200.305 583.647 202.497 584.874Z" fill="#191411"/>
<path d="M223.283 572.945C225.476 574.173 225.476 576.278 223.283 577.506C221.091 578.734 217.495 578.734 215.303 577.506C213.11 576.278 213.11 574.173 215.303 572.945C217.495 571.63 221.091 571.63 223.283 572.945Z" fill="#191411"/>
<path d="M244.07 560.932C246.262 562.159 246.262 564.264 244.07 565.492C241.877 566.72 238.281 566.72 236.089 565.492C233.896 564.264 233.896 562.159 236.089 560.932C238.281 559.616 241.877 559.616 244.07 560.932Z" fill="#191411"/>
<path d="M264.856 548.916C267.048 550.143 267.048 552.248 264.856 553.476C262.663 554.704 259.067 554.704 256.875 553.476C254.682 552.248 254.682 550.143 256.875 548.916C259.067 547.6 262.663 547.6 264.856 548.916Z" fill="#191411"/>
<path d="M285.637 536.902C287.83 538.13 287.83 540.234 285.637 541.462C283.445 542.69 279.849 542.69 277.657 541.462C275.464 540.234 275.464 538.13 277.657 536.902C279.849 535.586 283.445 535.586 285.637 536.902Z" fill="#191411"/>
<path d="M306.424 524.886C308.616 526.114 308.616 528.219 306.424 529.447C304.231 530.675 300.635 530.675 298.443 529.447C296.25 528.219 296.25 526.114 298.443 524.886C300.635 523.659 304.231 523.659 306.424 524.886Z" fill="#191411"/>
<path d="M327.21 512.873C329.402 514.1 329.402 516.205 327.21 517.433C325.017 518.661 321.421 518.661 319.229 517.433C317.036 516.205 317.036 514.1 319.229 512.873C321.509 511.645 325.017 511.645 327.21 512.873Z" fill="#191411"/>
<path d="M347.995 500.857C350.188 502.084 350.188 504.189 347.995 505.417C345.803 506.645 342.207 506.645 340.015 505.417C337.822 504.189 337.822 502.084 340.015 500.857C342.295 499.629 345.803 499.629 347.995 500.857Z" fill="#191411"/>
<path d="M368.777 488.84C370.97 490.068 370.97 492.173 368.777 493.401C366.585 494.629 362.989 494.629 360.796 493.401C358.604 492.173 358.604 490.068 360.796 488.84C363.077 487.613 366.585 487.613 368.777 488.84Z" fill="#191411"/>
<path d="M389.563 476.827C391.756 478.054 391.756 480.159 389.563 481.387C387.371 482.615 383.775 482.615 381.583 481.387C379.39 480.159 379.39 478.054 381.583 476.827C383.863 475.599 387.371 475.599 389.563 476.827Z" fill="#191411"/>
<path d="M410.435 464.9C412.628 466.128 412.628 468.232 410.435 469.46C408.243 470.688 404.647 470.688 402.454 469.46C400.262 468.232 400.262 466.128 402.454 464.9C404.647 463.584 408.243 463.584 410.435 464.9Z" fill="#191411"/>
<path d="M431.221 452.884C433.414 454.112 433.414 456.217 431.221 457.445C429.029 458.672 425.433 458.672 423.24 457.445C421.048 456.217 421.048 454.112 423.24 452.884C425.433 451.568 429.029 451.568 431.221 452.884Z" fill="#191411"/>
<path d="M452.007 440.87C454.2 442.098 454.2 444.203 452.007 445.431C449.814 446.658 446.219 446.658 444.026 445.431C441.834 444.203 441.834 442.098 444.026 440.87C446.219 439.555 449.814 439.555 452.007 440.87Z" fill="#191411"/>
<path d="M472.793 428.854C474.986 430.082 474.986 432.187 472.793 433.414C470.601 434.642 467.005 434.642 464.812 433.414C462.62 432.187 462.62 430.082 464.812 428.854C467.005 427.539 470.601 427.539 472.793 428.854Z" fill="#191411"/>
<path d="M493.575 416.839C495.767 418.067 495.767 420.171 493.575 421.399C491.382 422.627 487.787 422.627 485.594 421.399C483.402 420.171 483.402 418.067 485.594 416.839C487.787 415.611 491.382 415.611 493.575 416.839Z" fill="#191411"/>
<path d="M152.859 584.961C155.051 583.733 158.647 583.645 160.84 584.961C163.032 586.189 163.032 588.294 160.84 589.522C158.647 590.749 155.051 590.837 152.859 589.522C150.666 588.294 150.666 586.189 152.859 584.961Z" fill="#191411"/>
<path d="M181.626 572.945C183.818 574.173 183.818 576.278 181.626 577.506C179.433 578.734 175.838 578.734 173.645 577.506C171.453 576.278 171.453 574.173 173.645 572.945C175.925 571.63 179.433 571.63 181.626 572.945Z" fill="#191411"/>
<path d="M202.497 560.932C204.69 562.159 204.69 564.264 202.497 565.492C200.305 566.72 196.709 566.72 194.517 565.492C192.324 564.264 192.324 562.159 194.517 560.932C196.709 559.616 200.305 559.616 202.497 560.932Z" fill="#191411"/>
<path d="M223.283 548.916C225.476 550.143 225.476 552.248 223.283 553.476C221.091 554.704 217.495 554.704 215.303 553.476C213.11 552.248 213.11 550.143 215.303 548.916C217.495 547.6 221.091 547.6 223.283 548.916Z" fill="#191411"/>
<path d="M244.07 536.902C246.262 538.13 246.262 540.234 244.07 541.462C241.877 542.69 238.281 542.69 236.089 541.462C233.896 540.234 233.896 538.13 236.089 536.902C238.281 535.586 241.877 535.586 244.07 536.902Z" fill="#191411"/>
<path d="M264.856 524.886C267.048 526.114 267.048 528.219 264.856 529.447C262.663 530.675 259.067 530.675 256.875 529.447C254.682 528.219 254.682 526.114 256.875 524.886C259.067 523.659 262.663 523.659 264.856 524.886Z" fill="#191411"/>
<path d="M285.637 512.873C287.83 514.1 287.83 516.205 285.637 517.433C283.445 518.661 279.849 518.661 277.657 517.433C275.464 516.205 275.464 514.1 277.657 512.873C279.849 511.645 283.445 511.645 285.637 512.873Z" fill="#191411"/>
<path d="M302.475 506.383C305.575 506.383 308.088 504.93 308.088 503.138C308.088 501.346 305.575 499.893 302.475 499.893C299.375 499.893 296.863 501.346 296.863 503.138C296.863 504.93 299.375 506.383 302.475 506.383Z" fill="#191411"/>
<path d="M327.21 488.84C329.402 490.068 329.402 492.173 327.21 493.401C325.017 494.629 321.421 494.629 319.229 493.401C317.036 492.173 317.036 490.068 319.229 488.84C321.509 487.613 325.017 487.613 327.21 488.84Z" fill="#191411"/>
<path d="M347.995 476.827C350.188 478.054 350.188 480.159 347.995 481.387C345.803 482.615 342.207 482.615 340.015 481.387C337.822 480.159 337.822 478.054 340.015 476.827C342.295 475.599 345.803 475.599 347.995 476.827Z" fill="#191411"/>
<path d="M368.777 464.9C370.97 466.128 370.97 468.232 368.777 469.46C366.585 470.688 362.989 470.688 360.796 469.46C358.604 468.232 358.604 466.128 360.796 464.9C363.077 463.584 366.585 463.584 368.777 464.9Z" fill="#191411"/>
<path d="M389.563 452.884C391.756 454.112 391.756 456.217 389.563 457.445C387.371 458.672 383.775 458.672 381.583 457.445C379.39 456.217 379.39 454.112 381.583 452.884C383.863 451.568 387.371 451.568 389.563 452.884Z" fill="#191411"/>
<path d="M410.435 440.87C412.628 442.098 412.628 444.203 410.435 445.431C408.243 446.658 404.647 446.658 402.454 445.431C400.262 444.203 400.262 442.098 402.454 440.87C404.647 439.555 408.243 439.555 410.435 440.87Z" fill="#191411"/>
<path d="M431.221 428.854C433.414 430.082 433.414 432.187 431.221 433.414C429.029 434.642 425.433 434.642 423.24 433.414C421.048 432.187 421.048 430.082 423.24 428.854C425.433 427.539 429.029 427.539 431.221 428.854Z" fill="#191411"/>
<path d="M452.007 416.839C454.2 418.067 454.2 420.171 452.007 421.399C449.814 422.627 446.219 422.627 444.026 421.399C441.834 420.171 441.834 418.067 444.026 416.839C446.219 415.611 449.814 415.611 452.007 416.839Z" fill="#191411"/>
<path d="M472.793 404.825C474.986 406.053 474.986 408.157 472.793 409.385C470.601 410.613 467.005 410.613 464.812 409.385C462.62 408.157 462.62 406.053 464.812 404.825C467.005 403.597 470.601 403.597 472.793 404.825Z" fill="#191411"/>
<path d="M131.902 572.772C134.094 571.544 137.69 571.456 139.882 572.772C142.075 573.999 142.075 576.104 139.882 577.332C137.69 578.56 134.094 578.647 131.902 577.332C129.709 576.104 129.709 574.087 131.902 572.772Z" fill="#191411"/>
<path d="M160.664 560.757C162.857 561.984 162.857 564.089 160.664 565.317C158.472 566.545 154.876 566.545 152.683 565.317C150.491 564.089 150.491 561.984 152.683 560.757C154.964 559.529 158.472 559.529 160.664 560.757Z" fill="#191411"/>
<path d="M181.45 548.741C183.643 549.968 183.643 552.073 181.45 553.301C179.258 554.529 175.662 554.529 173.469 553.301C171.277 552.073 171.277 549.968 173.469 548.741C175.75 547.513 179.258 547.513 181.45 548.741Z" fill="#191411"/>
<path d="M202.322 536.725C204.514 537.952 204.514 540.057 202.322 541.285C200.129 542.513 196.534 542.513 194.341 541.285C192.149 540.057 192.149 537.952 194.341 536.725C196.534 535.497 200.129 535.497 202.322 536.725Z" fill="#191411"/>
<path d="M223.108 524.798C225.301 526.026 225.301 528.13 223.108 529.358C220.916 530.586 217.32 530.586 215.127 529.358C212.935 528.13 212.935 526.026 215.127 524.798C217.32 523.482 220.916 523.482 223.108 524.798Z" fill="#191411"/>
<path d="M243.894 512.784C246.086 514.012 246.086 516.117 243.894 517.344C241.701 518.572 238.106 518.572 235.913 517.344C233.721 516.117 233.721 514.012 235.913 512.784C238.106 511.469 241.701 511.469 243.894 512.784Z" fill="#191411"/>
<path d="M264.68 500.768C266.872 501.996 266.872 504.101 264.68 505.328C262.487 506.556 258.892 506.556 256.699 505.328C254.507 504.101 254.507 501.996 256.699 500.768C258.892 499.453 262.487 499.453 264.68 500.768Z" fill="#191411"/>
<path d="M285.462 488.754C287.654 489.982 287.654 492.087 285.462 493.315C283.269 494.542 279.674 494.542 277.481 493.315C275.289 492.087 275.289 489.982 277.481 488.754C279.674 487.439 283.269 487.439 285.462 488.754Z" fill="#191411"/>
<path d="M306.248 476.739C308.44 477.967 308.44 480.072 306.248 481.299C304.055 482.527 300.46 482.527 298.267 481.299C296.075 480.072 296.075 477.967 298.267 476.739C300.46 475.511 304.055 475.511 306.248 476.739Z" fill="#191411"/>
<path d="M327.034 464.723C329.226 465.951 329.226 468.056 327.034 469.284C324.841 470.511 321.246 470.511 319.053 469.284C316.861 468.056 316.861 465.951 319.053 464.723C321.333 463.495 324.841 463.495 327.034 464.723Z" fill="#191411"/>
<path d="M347.82 452.709C350.013 453.937 350.013 456.042 347.82 457.269C345.627 458.497 342.032 458.497 339.839 457.269C337.647 456.042 337.647 453.937 339.839 452.709C342.119 451.481 345.627 451.481 347.82 452.709Z" fill="#191411"/>
<path d="M368.602 440.693C370.794 441.921 370.794 444.026 368.602 445.253C366.409 446.481 362.813 446.481 360.621 445.253C358.428 444.026 358.428 441.921 360.621 440.693C362.901 439.465 366.409 439.465 368.602 440.693Z" fill="#191411"/>
<path d="M389.388 428.679C391.58 429.907 391.58 432.012 389.388 433.239C387.195 434.467 383.6 434.467 381.407 433.239C379.215 432.012 379.215 429.907 381.407 428.679C383.687 427.451 387.195 427.451 389.388 428.679Z" fill="#191411"/>
<path d="M410.259 416.752C412.452 417.98 412.452 420.085 410.259 421.313C408.067 422.54 404.471 422.54 402.279 421.313C400.086 420.085 400.086 417.98 402.279 416.752C404.471 415.524 407.979 415.436 410.259 416.752Z" fill="#191411"/>
<path d="M431.046 404.736C433.238 405.964 433.238 408.069 431.046 409.297C428.853 410.525 425.257 410.525 423.065 409.297C420.872 408.069 420.872 405.964 423.065 404.736C425.257 403.421 428.853 403.421 431.046 404.736Z" fill="#191411"/>
<path d="M451.832 392.723C454.024 393.951 454.024 396.055 451.832 397.283C449.639 398.511 446.043 398.511 443.851 397.283C441.658 396.055 441.658 393.951 443.851 392.723C446.043 391.407 449.639 391.407 451.832 392.723Z" fill="#191411"/>
<path d="M111.116 560.756C113.308 559.528 116.904 559.44 119.096 560.756C121.289 561.983 121.289 564.088 119.096 565.316C116.904 566.544 113.308 566.632 111.116 565.316C108.923 564.088 108.923 562.071 111.116 560.756Z" fill="#191411"/>
<path d="M139.882 548.741C142.075 549.968 142.075 552.073 139.882 553.301C137.69 554.529 134.094 554.529 131.902 553.301C129.709 552.073 129.709 549.968 131.902 548.741C134.182 547.513 137.69 547.513 139.882 548.741Z" fill="#191411"/>
<path d="M160.664 536.725C162.857 537.952 162.857 540.057 160.664 541.285C158.472 542.513 154.876 542.513 152.683 541.285C150.491 540.057 150.491 537.952 152.683 536.725C154.964 535.497 158.472 535.497 160.664 536.725Z" fill="#191411"/>
<path d="M181.45 524.798C183.643 526.026 183.643 528.13 181.45 529.358C179.258 530.586 175.662 530.586 173.469 529.358C171.277 528.13 171.277 526.026 173.469 524.798C175.75 523.482 179.258 523.482 181.45 524.798Z" fill="#191411"/>
<path d="M202.322 512.784C204.514 514.012 204.514 516.117 202.322 517.344C200.129 518.572 196.534 518.572 194.341 517.344C192.149 516.117 192.149 514.012 194.341 512.784C196.534 511.469 200.129 511.469 202.322 512.784Z" fill="#191411"/>
<path d="M223.108 500.768C225.301 501.996 225.301 504.101 223.108 505.328C220.916 506.556 217.32 506.556 215.127 505.328C212.935 504.101 212.935 501.996 215.127 500.768C217.32 499.453 220.916 499.453 223.108 500.768Z" fill="#191411"/>
<path d="M243.894 488.754C246.086 489.982 246.086 492.087 243.894 493.315C241.701 494.542 238.106 494.542 235.913 493.315C233.721 492.087 233.721 489.982 235.913 488.754C238.106 487.439 241.701 487.439 243.894 488.754Z" fill="#191411"/>
<path d="M264.68 476.739C266.872 477.967 266.872 480.072 264.68 481.299C262.487 482.527 258.892 482.527 256.699 481.299C254.507 480.072 254.507 477.967 256.699 476.739C258.892 475.511 262.487 475.511 264.68 476.739Z" fill="#191411"/>
<path d="M285.462 464.723C287.654 465.951 287.654 468.056 285.462 469.284C283.269 470.511 279.674 470.511 277.481 469.284C275.289 468.056 275.289 465.951 277.481 464.723C279.674 463.495 283.269 463.495 285.462 464.723Z" fill="#191411"/>
<path d="M306.248 452.709C308.44 453.937 308.44 456.042 306.248 457.269C304.055 458.497 300.46 458.497 298.267 457.269C296.075 456.042 296.075 453.937 298.267 452.709C300.46 451.481 304.055 451.481 306.248 452.709Z" fill="#191411"/>
<path d="M327.034 440.693C329.226 441.921 329.226 444.026 327.034 445.253C324.841 446.481 321.246 446.481 319.053 445.253C316.861 444.026 316.861 441.921 319.053 440.693C321.333 439.465 324.841 439.465 327.034 440.693Z" fill="#191411"/>
<path d="M347.82 428.679C350.013 429.907 350.013 432.012 347.82 433.239C345.627 434.467 342.032 434.467 339.839 433.239C337.647 432.012 337.647 429.907 339.839 428.679C342.119 427.451 345.627 427.451 347.82 428.679Z" fill="#191411"/>
<path d="M368.602 416.753C370.794 417.98 370.794 420.085 368.602 421.313C366.409 422.541 362.813 422.541 360.621 421.313C358.428 420.085 358.428 417.98 360.621 416.753C362.901 415.437 366.409 415.437 368.602 416.753Z" fill="#191411"/>
<path d="M389.388 404.736C391.58 405.964 391.58 408.069 389.388 409.297C387.195 410.525 383.6 410.525 381.407 409.297C379.215 408.069 379.215 405.964 381.407 404.736C383.687 403.421 387.195 403.421 389.388 404.736Z" fill="#191411"/>
<path d="M410.259 392.723C412.452 393.951 412.452 396.055 410.259 397.283C408.067 398.511 404.471 398.511 402.279 397.283C400.086 396.055 400.086 393.951 402.279 392.723C404.471 391.407 407.979 391.407 410.259 392.723Z" fill="#191411"/>
<path d="M431.046 380.707C433.238 381.935 433.238 384.039 431.046 385.267C428.853 386.495 425.257 386.495 423.065 385.267C420.872 384.039 420.872 381.935 423.065 380.707C425.257 379.391 428.853 379.391 431.046 380.707Z" fill="#191411"/>
<path d="M98.3106 548.741C100.503 549.968 100.503 552.073 98.3106 553.301C96.1181 554.529 92.5226 554.616 90.3301 553.301C88.1376 552.073 96.1181 547.513 98.3106 548.741Z" fill="#191411"/>
<path d="M111.116 536.725C113.308 535.497 116.904 535.497 119.096 536.725C121.289 537.952 121.289 540.057 119.096 541.285C116.904 542.513 113.308 542.513 111.116 541.285C108.923 540.057 108.923 538.04 111.116 536.725C108.923 538.04 113.396 535.497 111.116 536.725Z" fill="#191411"/>
<path d="M139.882 524.798C142.075 526.026 142.075 528.13 139.882 529.358C137.69 530.586 134.094 530.586 131.902 529.358C129.709 528.13 129.709 526.026 131.902 524.798C134.182 523.482 137.69 523.482 139.882 524.798Z" fill="#191411"/>
<path d="M160.664 512.784C162.857 514.012 162.857 516.117 160.664 517.344C158.472 518.572 154.876 518.572 152.683 517.344C150.491 516.117 150.491 514.012 152.683 512.784C154.964 511.469 158.472 511.469 160.664 512.784Z" fill="#191411"/>
<path d="M181.45 500.768C183.643 501.996 183.643 504.101 181.45 505.328C179.258 506.556 175.662 506.556 173.469 505.328C171.277 504.101 171.277 501.996 173.469 500.768C175.75 499.453 179.258 499.453 181.45 500.768Z" fill="#191411"/>
<path d="M202.322 488.754C204.514 489.982 204.514 492.087 202.322 493.315C200.129 494.542 196.534 494.542 194.341 493.315C192.149 492.087 192.149 489.982 194.341 488.754C196.534 487.439 200.129 487.439 202.322 488.754Z" fill="#191411"/>
<path d="M223.108 476.739C225.301 477.967 225.301 480.072 223.108 481.299C220.916 482.527 217.32 482.527 215.127 481.299C212.935 480.072 212.935 477.967 215.127 476.739C217.32 475.511 220.916 475.511 223.108 476.739Z" fill="#191411"/>
<path d="M243.894 464.723C246.086 465.951 246.086 468.056 243.894 469.284C241.701 470.511 238.106 470.511 235.913 469.284C233.721 468.056 233.721 465.951 235.913 464.723C238.106 463.495 241.701 463.495 243.894 464.723Z" fill="#191411"/>
<path d="M264.68 452.709C266.872 453.937 266.872 456.042 264.68 457.269C262.487 458.497 258.892 458.497 256.699 457.269C254.507 456.042 254.507 453.937 256.699 452.709C258.892 451.481 262.487 451.481 264.68 452.709Z" fill="#191411"/>
<path d="M285.462 440.693C287.654 441.921 287.654 444.026 285.462 445.253C283.269 446.481 279.674 446.481 277.481 445.253C275.289 444.026 275.289 441.921 277.481 440.693C279.674 439.465 283.269 439.465 285.462 440.693Z" fill="#191411"/>
<path d="M306.248 428.679C308.44 429.907 308.44 432.012 306.248 433.239C304.055 434.467 300.46 434.467 298.267 433.239C296.075 432.012 296.075 429.907 298.267 428.679C300.46 427.451 304.055 427.451 306.248 428.679Z" fill="#191411"/>
<path d="M327.034 416.753C329.226 417.98 329.226 420.085 327.034 421.313C324.841 422.541 321.246 422.541 319.053 421.313C316.861 420.085 316.861 417.98 319.053 416.753C321.333 415.437 324.841 415.437 327.034 416.753Z" fill="#191411"/>
<path d="M347.82 404.736C350.013 405.964 350.013 408.069 347.82 409.297C345.627 410.525 342.032 410.525 339.839 409.297C337.647 408.069 337.647 405.964 339.839 404.736C342.119 403.421 345.627 403.421 347.82 404.736Z" fill="#191411"/>
<path d="M368.602 392.723C370.794 393.951 370.794 396.055 368.602 397.283C366.409 398.511 362.813 398.511 360.621 397.283C358.428 396.055 358.428 393.951 360.621 392.723C362.901 391.407 366.409 391.407 368.602 392.723Z" fill="#191411"/>
<path d="M389.388 380.707C391.58 381.935 391.58 384.039 389.388 385.267C387.195 386.495 383.6 386.495 381.407 385.267C379.215 384.039 379.215 381.935 381.407 380.707C383.687 379.391 387.195 379.391 389.388 380.707Z" fill="#191411"/>
<path d="M410.259 368.691C412.452 369.919 412.452 372.024 410.259 373.252C408.067 374.479 404.471 374.479 402.279 373.252C400.086 372.024 400.086 369.919 402.279 368.691C404.471 367.463 407.979 367.463 410.259 368.691Z" fill="#191411"/>
<path d="M327.034 392.722C329.227 393.95 329.227 396.055 327.034 397.282C324.842 398.51 321.246 398.51 319.054 397.282C316.861 396.055 324.842 391.406 327.034 392.722Z" fill="#191411"/>
<path d="M339.925 380.707C342.117 379.479 345.713 379.479 347.905 380.707C350.098 381.935 350.098 384.04 347.905 385.268C345.713 386.495 342.117 386.495 339.925 385.268C337.732 384.04 337.732 381.935 339.925 380.707Z" fill="#191411"/>
<path d="M360.711 368.691C362.903 367.463 366.499 367.463 368.692 368.691C370.884 369.919 370.884 372.024 368.692 373.252C366.499 374.479 362.903 374.479 360.711 373.252C358.518 372.024 358.518 369.919 360.711 368.691C358.518 369.919 362.903 367.463 360.711 368.691Z" fill="#191411"/>
<path d="M389.388 356.677C391.58 357.905 391.58 360.01 389.388 361.238C387.195 362.466 383.6 362.466 381.407 361.238C379.215 360.01 379.215 357.905 381.407 356.677C383.687 355.45 387.195 355.45 389.388 356.677Z" fill="#191411"/>
<path d="M514.361 404.737C516.554 405.965 516.554 408.07 514.361 409.297C512.168 410.525 508.573 410.525 506.38 409.297C504.188 408.07 504.188 405.965 506.38 404.737C508.573 403.509 512.168 403.509 514.361 404.737Z" fill="#191411"/>
<path d="M535.147 392.721C537.34 393.949 537.34 396.054 535.147 397.281C532.955 398.509 529.359 398.509 527.166 397.281C524.974 396.054 524.974 393.949 527.166 392.721C529.359 391.493 532.955 391.493 535.147 392.721Z" fill="#191411"/>
<path d="M555.933 380.794C558.126 382.022 558.126 384.127 555.933 385.355C553.741 386.583 550.145 386.583 547.952 385.355C545.76 384.127 545.76 382.022 547.952 380.794C550.145 379.479 553.741 379.479 555.933 380.794Z" fill="#191411"/>
<path d="M493.575 392.721C495.767 393.949 495.767 396.054 493.575 397.281C491.382 398.509 487.787 398.509 485.594 397.281C483.402 396.054 483.402 393.949 485.594 392.721C487.787 391.493 491.382 391.493 493.575 392.721Z" fill="#191411"/>
<path d="M514.361 380.794C516.554 382.022 516.554 384.127 514.361 385.355C512.168 386.583 508.573 386.583 506.38 385.355C504.188 384.127 504.188 382.022 506.38 380.794C508.573 379.479 512.168 379.479 514.361 380.794Z" fill="#191411"/>
<path d="M531.199 374.305C534.299 374.305 536.812 372.852 536.812 371.06C536.812 369.268 534.299 367.815 531.199 367.815C528.099 367.815 525.586 369.268 525.586 371.06C525.586 372.852 528.099 374.305 531.199 374.305Z" fill="#191411"/>
<path d="M555.933 356.764C558.126 357.992 558.126 360.097 555.933 361.325C553.741 362.553 550.145 362.553 547.952 361.325C545.76 360.097 545.76 357.992 547.952 356.764C550.145 355.449 553.741 355.449 555.933 356.764Z" fill="#191411"/>
<path d="M472.618 380.619C474.81 381.847 474.81 383.952 472.618 385.18C470.425 386.407 466.829 386.407 464.637 385.18C462.444 383.952 462.444 381.847 464.637 380.619C466.829 379.392 470.425 379.392 472.618 380.619Z" fill="#191411"/>
<path d="M493.4 368.603C495.592 369.831 495.592 371.936 493.4 373.164C491.207 374.392 487.611 374.392 485.419 373.164C483.226 371.936 483.226 369.831 485.419 368.603C487.611 367.376 491.207 367.376 493.4 368.603Z" fill="#191411"/>
<path d="M514.186 356.59C516.378 357.817 516.378 359.922 514.186 361.15C511.993 362.378 508.397 362.378 506.205 361.15C504.012 359.922 504.012 357.817 506.205 356.59C508.397 355.362 511.993 355.362 514.186 356.59Z" fill="#191411"/>
<path d="M534.971 344.574C537.164 345.801 537.164 347.906 534.971 349.134C532.779 350.362 529.183 350.362 526.991 349.134C524.798 347.906 524.798 345.801 526.991 344.574C529.183 343.346 532.779 343.346 534.971 344.574Z" fill="#191411"/>
<path d="M451.832 368.603C454.024 369.831 454.024 371.936 451.832 373.164C449.639 374.392 446.043 374.392 443.851 373.164C441.658 371.936 441.658 369.831 443.851 368.603C446.043 367.376 449.639 367.376 451.832 368.603Z" fill="#191411"/>
<path d="M472.618 356.59C474.81 357.817 474.81 359.922 472.618 361.15C470.425 362.378 466.829 362.378 464.637 361.15C462.444 359.922 462.444 357.817 464.637 356.59C466.829 355.362 470.425 355.362 472.618 356.59Z" fill="#191411"/>
<path d="M493.4 344.574C495.592 345.801 495.592 347.906 493.4 349.134C491.207 350.362 487.611 350.362 485.419 349.134C483.226 347.906 483.226 345.801 485.419 344.574C487.611 343.346 491.207 343.346 493.4 344.574Z" fill="#191411"/>
<path d="M514.186 332.647C516.378 333.875 516.378 335.979 514.186 337.207C511.993 338.435 508.397 338.435 506.205 337.207C504.012 335.979 504.012 333.875 506.205 332.647C508.397 331.331 511.993 331.331 514.186 332.647Z" fill="#191411"/>
<path d="M430.96 356.59C433.153 357.817 433.153 359.922 430.96 361.15C428.768 362.378 425.172 362.378 422.979 361.15C420.787 359.922 420.787 357.817 422.979 356.59C425.26 355.362 428.768 355.362 430.96 356.59Z" fill="#191411"/>
<path d="M451.832 344.574C454.024 345.801 454.024 347.906 451.832 349.134C449.639 350.362 446.043 350.362 443.851 349.134C441.658 347.906 441.658 345.801 443.851 344.574C446.043 343.346 449.639 343.346 451.832 344.574Z" fill="#191411"/>
<path d="M472.618 332.647C474.81 333.875 474.81 335.979 472.618 337.207C470.425 338.435 466.829 338.435 464.637 337.207C462.444 335.979 462.444 333.875 464.637 332.647C466.829 331.331 470.425 331.331 472.618 332.647Z" fill="#191411"/>
<path d="M410.174 344.574C412.367 345.801 412.367 347.906 410.174 349.134C407.981 350.362 404.386 350.362 402.193 349.134C400.001 347.906 400.001 345.801 402.193 344.574C404.473 343.346 407.981 343.346 410.174 344.574Z" fill="#191411"/>
<path d="M430.96 332.647C433.153 333.875 433.153 335.979 430.96 337.207C428.768 338.435 425.172 338.435 422.979 337.207C420.787 335.979 420.787 333.875 422.979 332.647C425.26 331.331 428.768 331.331 430.96 332.647Z" fill="#191411"/>
<path d="M523.837 29.905V340.365L50.1665 605.133L93.929 498.752L145.146 499.366L260.122 250.297L323.792 317.3L381.675 221.18L421.578 258.014L523.837 29.905Z" fill="#FEBE2F"/>
<path d="M50.1647 605.134L4.38501 579.964L48.2353 473.495L93.9272 498.753L50.1647 605.134Z" fill="#FEBE2F"/>
<path d="M45.8662 606.537L14.2939 588.295L58.1442 481.914L103.836 507.084L66.6512 597.416L45.8662 606.537Z" fill="#FFEFCD"/>
<path d="M99.4524 474.197L145.145 499.367L93.9273 498.753L48.2354 473.495L99.4524 474.197Z" fill="#FEBE2F"/>
<path d="M110.329 482.353L156.986 507.786L103.839 507.084L59.1121 481.914L110.329 482.353Z" fill="#FFEFCD"/>
<path d="M214.427 225.127L260.119 250.297L145.143 499.366L99.4512 474.196L214.427 225.127Z" fill="#FEBE2F"/>
<path d="M226.269 233.545L271.961 258.803L156.985 507.785L111.206 482.615L226.269 233.545Z" fill="#FFEFCD"/>
<path d="M335.981 196.011L381.673 221.181L323.791 317.301L285.553 277.047L335.981 196.011Z" fill="#FEBE2F"/>
<path d="M345.89 204.606L391.582 229.776L333.7 325.808L295.462 285.554L345.89 204.606Z" fill="#FFEFCD"/>
<path d="M478.143 4.73621L523.835 29.9062L421.576 258.015L381.673 221.181L478.143 4.73621Z" fill="#FEBE2F"/>
<path d="M488.053 13.2429L523.835 32.8878V59.9872L431.486 266.522L391.582 229.688L488.053 13.2429Z" fill="#FFEFCD"/>
<path d="M527.343 30.6074V27.9765L522.257 25.17L476.477 0L380.007 216.445L334.665 191.538L284.939 271.521L264.154 249.683L262.225 247.666L258.453 245.561L212.762 220.391L97.1723 470.776L49.1123 470.162H45.8675L43.8503 474.986L0 581.367L45.7797 606.537L50.0769 608.905L52.7959 607.326L527.256 342.207V30.6074H527.343ZM479.81 9.47154L519.538 31.3091L420.436 252.314L386.145 220.567L386.496 219.953L386.145 219.777L479.81 9.47154ZM289.85 276.608L337.121 200.483L376.849 222.408L323.089 311.688L289.85 276.608ZM216.006 229.863L255.735 251.7L210.13 350.539L143.566 494.631L128.569 486.387L103.837 472.794L216.006 229.863ZM61.5659 477.003L98.4878 477.442L117.87 488.141L131.814 495.771L114.011 495.596L94.892 495.333L67.7048 480.336L61.5659 477.003ZM49.9894 478.319L60.0749 483.844L89.63 500.156L48.4109 600.31L8.77005 578.473L49.9894 478.319ZM57.0053 597.416L96.2953 502.085L144.267 502.699H147.425L149.617 497.964L214.603 357.204L261.172 256.261L281.256 277.397L324.404 322.826L382.462 226.443L422.717 263.716L520.415 45.955V338.436L57.0053 597.416Z" fill="#191411"/>
</svg>
