<svg width="341" height="550" viewBox="0 0 341 550" fill="none" xmlns="http://www.w3.org/2000/svg">
<path d="M201.067 545.343C202.858 546.379 202.858 548.075 201.067 549.112C199.277 550.148 196.262 550.148 194.472 549.112C192.682 548.075 192.682 546.379 194.472 545.343C196.356 544.306 199.277 544.306 201.067 545.343Z" fill="#1F234E"/>
<path d="M218.311 535.355C220.101 536.392 220.101 538.088 218.311 539.124C216.52 540.16 213.505 540.16 211.715 539.124C209.925 538.088 209.925 536.392 211.715 535.355C213.505 534.319 216.52 534.319 218.311 535.355Z" fill="#1F234E"/>
<path d="M235.554 525.462C237.344 526.499 237.344 528.194 235.554 529.231C233.763 530.267 230.748 530.267 228.958 529.231C227.168 528.194 227.168 526.499 228.958 525.462C230.748 524.426 233.669 524.426 235.554 525.462Z" fill="#1F234E"/>
<path d="M252.7 515.475C254.49 516.511 254.49 518.207 252.7 519.244C250.909 520.28 247.895 520.28 246.105 519.244C244.314 518.207 244.314 516.511 246.105 515.475C247.989 514.438 250.909 514.438 252.7 515.475Z" fill="#1F234E"/>
<path d="M269.943 505.582C271.734 506.618 271.734 508.314 269.943 509.35C268.153 510.387 265.138 510.387 263.348 509.35C261.558 508.314 261.558 506.618 263.348 505.582C265.232 504.545 268.153 504.545 269.943 505.582Z" fill="#1F234E"/>
<path d="M287.187 495.594C288.977 496.631 288.977 498.327 287.187 499.363C285.396 500.399 282.381 500.399 280.591 499.363C278.801 498.327 278.801 496.631 280.591 495.594C282.381 494.558 285.396 494.558 287.187 495.594Z" fill="#1F234E"/>
<path d="M304.43 485.701C306.22 486.738 306.22 488.433 304.43 489.47C302.639 490.506 299.624 490.506 297.834 489.47C296.044 488.433 296.044 486.738 297.834 485.701C299.624 484.665 302.545 484.665 304.43 485.701Z" fill="#1F234E"/>
<path d="M321.576 475.714C323.366 476.75 323.366 478.446 321.576 479.482C319.785 480.519 316.771 480.519 314.981 479.482C313.19 478.446 313.19 476.75 314.981 475.714C316.865 474.677 319.785 474.677 321.576 475.714Z" fill="#1F234E"/>
<path d="M338.819 465.82C340.61 466.857 340.61 468.553 338.819 469.589C337.029 470.626 334.014 470.626 332.224 469.589C330.434 468.553 330.434 466.857 332.224 465.82C334.014 464.784 337.029 464.784 338.819 465.82Z" fill="#1F234E"/>
<path d="M166.677 545.343C168.467 546.379 168.467 548.075 166.677 549.112C164.887 550.148 161.872 550.148 160.082 549.112C158.292 548.075 158.292 546.379 160.082 545.343C161.872 544.306 164.793 544.306 166.677 545.343Z" fill="#1F234E"/>
<path d="M183.824 535.355C185.614 536.392 185.614 538.088 183.824 539.124C182.033 540.16 179.019 540.16 177.229 539.124C175.438 538.088 175.438 536.392 177.229 535.355C179.113 534.319 182.033 534.319 183.824 535.355Z" fill="#1F234E"/>
<path d="M201.067 525.462C202.858 526.499 202.858 528.194 201.067 529.231C199.277 530.267 196.262 530.267 194.472 529.231C192.682 528.194 192.682 526.499 194.472 525.462C196.356 524.426 199.277 524.426 201.067 525.462Z" fill="#1F234E"/>
<path d="M218.311 515.475C220.101 516.511 220.101 518.207 218.311 519.244C216.52 520.28 213.505 520.28 211.715 519.244C209.925 518.207 209.925 516.511 211.715 515.475C213.505 514.438 216.52 514.438 218.311 515.475Z" fill="#1F234E"/>
<path d="M235.554 505.582C237.344 506.618 237.344 508.314 235.554 509.35C233.763 510.387 230.748 510.387 228.958 509.35C227.168 508.314 227.168 506.618 228.958 505.582C230.748 504.545 233.669 504.545 235.554 505.582Z" fill="#1F234E"/>
<path d="M252.7 495.594C254.49 496.631 254.49 498.327 252.7 499.363C250.909 500.399 247.895 500.399 246.105 499.363C244.314 498.327 244.314 496.631 246.105 495.594C247.989 494.558 250.909 494.558 252.7 495.594Z" fill="#1F234E"/>
<path d="M269.943 485.701C271.734 486.738 271.734 488.433 269.943 489.47C268.153 490.506 265.138 490.506 263.348 489.47C261.558 488.433 261.558 486.738 263.348 485.701C265.232 484.665 268.153 484.665 269.943 485.701Z" fill="#1F234E"/>
<path d="M287.187 475.714C288.977 476.75 288.977 478.446 287.187 479.482C285.396 480.519 282.381 480.519 280.591 479.482C278.801 478.446 278.801 476.75 280.591 475.714C282.381 474.677 285.396 474.677 287.187 475.714Z" fill="#1F234E"/>
<path d="M304.43 465.82C306.22 466.857 306.22 468.553 304.43 469.589C302.639 470.626 299.624 470.626 297.834 469.589C296.044 468.553 296.044 466.857 297.834 465.82C299.624 464.784 302.545 464.784 304.43 465.82Z" fill="#1F234E"/>
<path d="M321.576 455.833C323.366 456.869 323.366 458.565 321.576 459.602C319.785 460.638 316.771 460.638 314.981 459.602C313.19 458.565 313.19 456.869 314.981 455.833C316.865 454.797 319.785 454.797 321.576 455.833Z" fill="#1F234E"/>
<path d="M338.819 445.94C340.61 446.976 340.61 448.672 338.819 449.709C337.029 450.745 334.014 450.745 332.224 449.709C330.434 448.672 330.434 446.976 332.224 445.94C334.014 444.903 337.029 444.903 338.819 445.94Z" fill="#1F234E"/>
<path d="M149.435 535.355C151.225 536.392 151.225 538.088 149.435 539.124C147.644 540.16 144.629 540.16 142.839 539.124C141.049 538.088 141.049 536.392 142.839 535.355C144.629 534.319 147.644 534.319 149.435 535.355Z" fill="#1F234E"/>
<path d="M166.677 525.462C168.467 526.499 168.467 528.194 166.677 529.231C164.887 530.267 161.872 530.267 160.082 529.231C158.292 528.194 158.292 526.499 160.082 525.462C161.872 524.426 164.793 524.426 166.677 525.462Z" fill="#1F234E"/>
<path d="M183.824 515.475C185.614 516.511 185.614 518.207 183.824 519.244C182.033 520.28 179.019 520.28 177.229 519.244C175.438 518.207 175.438 516.511 177.229 515.475C179.113 514.438 182.033 514.438 183.824 515.475Z" fill="#1F234E"/>
<path d="M201.067 505.582C202.858 506.618 202.858 508.314 201.067 509.35C199.277 510.387 196.262 510.387 194.472 509.35C192.682 508.314 192.682 506.618 194.472 505.582C196.356 504.545 199.277 504.545 201.067 505.582Z" fill="#1F234E"/>
<path d="M218.311 495.594C220.101 496.631 220.101 498.327 218.311 499.363C216.52 500.399 213.505 500.399 211.715 499.363C209.925 498.327 209.925 496.631 211.715 495.594C213.505 494.558 216.52 494.558 218.311 495.594Z" fill="#1F234E"/>
<path d="M235.554 485.701C237.344 486.738 237.344 488.433 235.554 489.47C233.763 490.506 230.748 490.506 228.958 489.47C227.168 488.433 227.168 486.738 228.958 485.701C230.748 484.665 233.669 484.665 235.554 485.701Z" fill="#1F234E"/>
<path d="M252.7 475.714C254.49 476.75 254.49 478.446 252.7 479.482C250.909 480.519 247.895 480.519 246.105 479.482C244.314 478.446 244.314 476.75 246.105 475.714C247.989 474.677 250.909 474.677 252.7 475.714Z" fill="#1F234E"/>
<path d="M269.943 465.82C271.734 466.857 271.734 468.553 269.943 469.589C268.153 470.626 265.138 470.626 263.348 469.589C261.558 468.553 261.558 466.857 263.348 465.82C265.232 464.784 268.153 464.784 269.943 465.82Z" fill="#1F234E"/>
<path d="M287.187 455.833C288.977 456.869 288.977 458.565 287.187 459.602C285.396 460.638 282.381 460.638 280.591 459.602C278.801 458.565 278.801 456.869 280.591 455.833C282.381 454.797 285.396 454.797 287.187 455.833Z" fill="#1F234E"/>
<path d="M301.131 450.556C303.681 450.556 305.748 449.333 305.748 447.824C305.748 446.315 303.681 445.092 301.131 445.092C298.581 445.092 296.514 446.315 296.514 447.824C296.514 449.333 298.581 450.556 301.131 450.556Z" fill="#1F234E"/>
<path d="M321.576 435.953C323.366 436.989 323.366 438.685 321.576 439.721C319.785 440.758 316.771 440.758 314.981 439.721C313.19 438.685 313.19 436.989 314.981 435.953C316.865 434.916 319.785 434.916 321.576 435.953Z" fill="#1F234E"/>
<path d="M338.819 426.059C340.61 427.096 340.61 428.792 338.819 429.828C337.029 430.865 334.014 430.865 332.224 429.828C330.434 428.792 330.434 427.096 332.224 426.059C334.014 425.023 337.029 425.023 338.819 426.059Z" fill="#1F234E"/>
<path d="M132.191 525.462C133.982 526.499 133.982 528.194 132.191 529.231C130.401 530.267 127.386 530.267 125.596 529.231C123.806 528.194 123.806 526.499 125.596 525.462C127.48 524.426 130.401 524.426 132.191 525.462Z" fill="#1F234E"/>
<path d="M149.435 515.475C151.225 516.511 151.225 518.207 149.435 519.244C147.644 520.28 144.629 520.28 142.839 519.244C141.049 518.207 141.049 516.511 142.839 515.475C144.629 514.438 147.644 514.438 149.435 515.475Z" fill="#1F234E"/>
<path d="M163.379 510.198C165.929 510.198 167.996 508.975 167.996 507.466C167.996 505.957 165.929 504.733 163.379 504.733C160.829 504.733 158.762 505.957 158.762 507.466C158.762 508.975 160.829 510.198 163.379 510.198Z" fill="#1F234E"/>
<path d="M183.824 495.594C185.614 496.631 185.614 498.327 183.824 499.363C182.033 500.399 179.019 500.399 177.229 499.363C175.438 498.327 175.438 496.631 177.229 495.594C179.113 494.558 182.033 494.558 183.824 495.594Z" fill="#1F234E"/>
<path d="M201.067 485.701C202.858 486.738 202.858 488.433 201.067 489.47C199.277 490.506 196.262 490.506 194.472 489.47C192.682 488.433 192.682 486.738 194.472 485.701C196.356 484.665 199.277 484.665 201.067 485.701Z" fill="#1F234E"/>
<path d="M218.311 475.714C220.101 476.75 220.101 478.446 218.311 479.482C216.52 480.519 213.505 480.519 211.715 479.482C209.925 478.446 209.925 476.75 211.715 475.714C213.505 474.677 216.52 474.677 218.311 475.714Z" fill="#1F234E"/>
<path d="M235.554 465.82C237.344 466.857 237.344 468.553 235.554 469.589C233.763 470.626 230.748 470.626 228.958 469.589C227.168 468.553 227.168 466.857 228.958 465.82C230.748 464.784 233.669 464.784 235.554 465.82Z" fill="#1F234E"/>
<path d="M252.7 455.833C254.49 456.869 254.49 458.565 252.7 459.602C250.909 460.638 247.895 460.638 246.105 459.602C244.314 458.565 244.314 456.869 246.105 455.833C247.989 454.797 250.909 454.797 252.7 455.833Z" fill="#1F234E"/>
<path d="M269.943 445.94C271.734 446.976 271.734 448.672 269.943 449.709C268.153 450.745 265.138 450.745 263.348 449.709C261.558 448.672 261.558 446.976 263.348 445.94C265.232 444.903 268.153 444.903 269.943 445.94Z" fill="#1F234E"/>
<path d="M287.187 435.953C288.977 436.989 288.977 438.685 287.187 439.721C285.396 440.758 282.381 440.758 280.591 439.721C278.801 438.685 278.801 436.989 280.591 435.953C282.381 434.916 285.396 434.916 287.187 435.953Z" fill="#1F234E"/>
<path d="M304.43 426.059C306.22 427.096 306.22 428.792 304.43 429.828C302.639 430.865 299.624 430.865 297.834 429.828C296.044 428.792 296.044 427.096 297.834 426.059C299.624 425.023 302.545 425.023 304.43 426.059Z" fill="#1F234E"/>
<path d="M321.576 416.072C323.366 417.108 323.366 418.804 321.576 419.841C319.785 420.877 316.771 420.877 314.981 419.841C313.19 418.804 313.19 417.108 314.981 416.072C316.865 415.035 319.785 415.035 321.576 416.072Z" fill="#1F234E"/>
<path d="M338.819 406.179C340.61 407.215 340.61 408.911 338.819 409.947C337.029 410.984 334.014 410.984 332.224 409.947C330.434 408.911 330.434 407.215 332.224 406.179C334.014 405.142 337.029 405.142 338.819 406.179Z" fill="#1F234E"/>
<path d="M111.558 519.997C114.108 519.997 116.175 518.774 116.175 517.265C116.175 515.756 114.108 514.532 111.558 514.532C109.008 514.532 106.941 515.756 106.941 517.265C106.941 518.774 109.008 519.997 111.558 519.997Z" fill="#1F234E"/>
<path d="M132.1 505.487C133.89 506.524 133.89 508.22 132.1 509.256C130.309 510.293 127.294 510.293 125.504 509.256C123.714 508.22 123.714 506.524 125.504 505.487C127.294 504.357 130.215 504.357 132.1 505.487Z" fill="#1F234E"/>
<path d="M149.246 495.5C151.036 496.536 151.036 498.232 149.246 499.269C147.456 500.305 144.44 500.305 142.65 499.269C140.86 498.232 140.86 496.536 142.65 495.5C144.535 494.464 147.456 494.464 149.246 495.5Z" fill="#1F234E"/>
<path d="M318.186 400.714C320.735 400.714 322.802 399.491 322.802 397.982C322.802 396.472 320.735 395.249 318.186 395.249C315.636 395.249 313.569 396.472 313.569 397.982C313.569 399.491 315.636 400.714 318.186 400.714Z" fill="#1F234E"/>
<path d="M97.6135 505.487C99.4037 506.524 99.4037 508.22 97.6135 509.256C95.8233 510.293 92.8081 510.293 91.0179 509.256C89.2277 508.22 89.2277 506.524 91.0179 505.487C92.8081 504.451 95.8233 504.357 97.6135 505.487Z" fill="#1F234E"/>
<path d="M114.856 495.5C116.646 496.536 116.646 498.232 114.856 499.269C113.066 500.305 110.051 500.305 108.261 499.269C106.471 498.232 106.471 496.536 108.261 495.5C110.051 494.464 113.066 494.464 114.856 495.5Z" fill="#1F234E"/>
<path d="M132.1 485.607C133.89 486.643 133.89 488.339 132.1 489.376C130.309 490.412 127.294 490.412 125.504 489.376C123.714 488.339 123.714 486.643 125.504 485.607C127.294 484.476 130.215 484.476 132.1 485.607Z" fill="#1F234E"/>
<path d="M80.4621 495.5C82.2523 496.536 82.2523 498.232 80.4621 499.269C78.6719 500.305 75.6568 500.305 73.8666 499.269C72.0764 498.232 72.0764 496.536 73.8666 495.5C75.6568 494.464 78.5777 494.464 80.4621 495.5Z" fill="#1F234E"/>
<path d="M94.315 490.223C96.8648 490.223 98.9323 489 98.9323 487.491C98.9323 485.982 96.8648 484.759 94.315 484.759C91.7652 484.759 89.6982 485.982 89.6982 487.491C89.6982 489 91.7652 490.223 94.315 490.223Z" fill="#1F234E"/>
<path d="M114.856 475.619C116.646 476.656 116.646 478.352 114.856 479.388C113.066 480.425 110.051 480.425 108.261 479.388C106.471 478.352 106.471 476.656 108.261 475.619C110.051 474.583 113.066 474.583 114.856 475.619Z" fill="#1F234E"/>
<path d="M63.2236 485.607C65.0138 486.643 65.0138 488.339 63.2236 489.376C61.4334 490.412 58.4182 490.412 56.628 489.376C54.8379 488.339 54.8379 486.643 56.628 485.607C58.4182 484.476 61.3392 484.476 63.2236 485.607Z" fill="#1F234E"/>
<path d="M80.4621 475.619C82.2523 476.656 82.2523 478.352 80.4621 479.388C78.6719 480.425 75.6568 480.425 73.8666 479.388C72.0764 478.352 72.0764 476.656 73.8666 475.619C75.6568 474.583 78.5777 474.583 80.4621 475.619Z" fill="#1F234E"/>
<path d="M97.6135 465.726C99.4037 466.763 99.4037 468.459 97.6135 469.495C95.8233 470.531 92.8081 470.531 91.0179 469.495C89.2277 468.459 89.2277 466.763 91.0179 465.726C92.9024 464.596 95.8233 464.596 97.6135 465.726Z" fill="#1F234E"/>
<path d="M45.9801 475.619C47.7703 476.656 47.7703 478.352 45.9801 479.388C44.1899 480.425 41.1753 480.425 39.3851 479.388C37.5949 478.352 37.5949 476.656 39.3851 475.619C41.1753 474.583 44.1899 474.583 45.9801 475.619Z" fill="#1F234E"/>
<path d="M63.2236 465.726C65.0138 466.763 65.0138 468.458 63.2236 469.495C61.4334 470.531 58.4182 470.531 56.628 469.495C54.8379 468.458 54.8379 466.763 56.628 465.726C58.4182 464.69 61.3392 464.595 63.2236 465.726Z" fill="#1F234E"/>
<path d="M77.1682 460.356C79.718 460.356 81.7855 459.132 81.7855 457.623C81.7855 456.114 79.718 454.891 77.1682 454.891C74.6184 454.891 72.5515 456.114 72.5515 457.623C72.5515 459.132 74.6184 460.356 77.1682 460.356Z" fill="#1F234E"/>
<path d="M28.7375 465.726C30.5277 466.763 30.5277 468.459 28.7375 469.495C26.9473 470.531 23.9322 470.531 22.142 469.495C20.3518 468.459 20.3518 466.763 22.142 465.726C24.0264 464.596 26.9473 464.596 28.7375 465.726Z" fill="#1F234E"/>
<path d="M45.9801 455.739C47.7703 456.775 47.7703 458.471 45.9801 459.508C44.1899 460.544 41.1753 460.544 39.3851 459.508C37.5949 458.471 37.5949 456.775 39.3851 455.739C41.1753 454.703 44.1899 454.703 45.9801 455.739Z" fill="#1F234E"/>
<path d="M63.2236 445.846C65.0138 446.882 65.0138 448.578 63.2236 449.614C61.4334 450.651 58.4182 450.651 56.628 449.614C54.8379 448.578 54.8379 446.882 56.628 445.846C58.4182 444.715 61.3392 444.715 63.2236 445.846Z" fill="#1F234E"/>
<path d="M28.7375 445.846C30.5277 446.882 30.5277 448.578 28.7375 449.614C26.9473 450.651 23.9322 450.651 22.142 449.614C20.3518 448.578 20.3518 446.882 22.142 445.846C24.0264 444.715 26.9473 444.715 28.7375 445.846Z" fill="#1F234E"/>
<path d="M45.9801 435.858C47.7703 436.895 47.7703 438.59 45.9801 439.627C44.1899 440.663 41.1753 440.663 39.3851 439.627C37.5949 438.59 37.5949 436.895 39.3851 435.858C41.1753 434.822 44.1899 434.822 45.9801 435.858Z" fill="#1F234E"/>
<path d="M28.7375 425.965C30.5277 427.002 30.5277 428.698 28.7375 429.734C26.9473 430.77 23.9322 430.77 22.142 429.734C20.3518 428.698 20.3518 427.002 22.142 425.965C24.0264 424.835 26.9473 424.835 28.7375 425.965Z" fill="#1F234E"/>
<path d="M45.9801 415.978C47.7703 417.014 47.7703 418.71 45.9801 419.747C44.1899 420.783 41.1753 420.783 39.3851 419.747C37.5949 418.71 37.5949 417.014 39.3851 415.978C41.1753 414.941 44.1899 414.941 45.9801 415.978Z" fill="#1F234E"/>
<path d="M330.147 280.677C330.147 217.172 320.348 163.843 300.845 120.407C281.247 77.0656 252.415 44.277 214.162 22.2293C182.598 4.04473 160.079 -1.3259 141.517 7.90773L139.067 8.75569L135.487 10.9229C135.016 11.2055 134.451 11.4881 133.98 11.865L46.8254 63.6864L99.0235 114.095C98.4582 124.27 98.0815 135.106 98.0815 146.789C98.0815 209.729 107.88 262.775 127.29 305.928C144.155 343.239 167.994 372.636 198.992 394.213L199.745 470.626L291.894 416.26V416.072C295.38 414.093 298.677 411.738 301.598 408.629C320.631 388.936 330.147 346.349 330.147 280.677Z" fill="#BFD9F6"/>
<path d="M196.26 476.656L195.412 396.003C164.791 374.144 140.764 344.37 123.993 307.341C104.395 263.906 94.4074 209.917 94.4074 146.695C94.4074 135.859 94.6903 125.401 95.2557 115.413L40.8901 62.9326L132.001 8.75571C132.19 8.66149 132.567 8.37885 132.944 8.19041L137.09 5.74072L140.199 4.60997C158.666 -4.62366 182.127 -0.101032 215.764 19.2142C254.488 41.5445 284.168 75.1813 303.954 118.994C323.646 162.618 333.634 217.078 333.634 280.677C333.634 347.95 323.929 390.538 304.048 410.984C301.599 413.528 298.772 415.695 295.38 417.862L293.496 419.087L196.26 476.656ZM52.4791 64.346L102.51 112.587L102.417 114.189C101.851 124.459 101.568 135.388 101.568 146.601C101.568 208.786 111.273 261.833 130.494 304.326C146.983 340.79 170.632 369.998 200.971 391.198L202.479 392.234L203.232 464.313L290.104 412.868C293.779 410.701 296.7 408.534 299.149 405.99C317.428 387.24 326.756 345.029 326.756 280.677C326.756 218.02 316.957 164.597 297.736 121.915C278.609 79.4212 249.872 46.9152 212.466 25.3386C181.091 7.24827 159.797 2.91402 143.214 11.1112L140.293 12.1477L135.77 14.8801L52.4791 64.346Z" fill="#1F234E"/>
<path d="M73.3014 155.457L68.5903 359.916L114.57 411.172L169.878 419.558L174.023 376.405L162.811 150.275L121.354 115.508L73.3014 155.457Z" fill="#BFD9F6"/>
<path d="M100.533 339.376L149.339 309.885C149.339 309.885 180.62 265.696 180.62 263.905C180.62 262.115 145.853 137.273 145.853 137.273C145.853 137.273 93.6548 112.587 89.9801 111.927C86.3998 111.362 60.489 164.314 60.489 177.034C60.489 189.659 62.8445 282.184 62.8445 285.67C62.8445 289.157 76.4123 342.203 76.4123 342.203L85.8344 343.993L100.533 339.376Z" fill="#1F234E"/>
<path d="M161.211 314.879L110.521 347.291C110.521 347.291 132.286 390.821 161.211 365.004C190.137 339.188 161.211 314.879 161.211 314.879Z" fill="white"/>
<path d="M235.646 336.549C235.646 402.221 226.13 444.809 207.098 464.313C188.065 483.911 158.856 482.309 119.566 459.602C81.1242 437.46 52.1987 404.765 32.695 361.612C13.1913 318.459 3.48682 265.413 3.48682 202.473C3.48682 136.519 13.0028 93.5543 32.0354 73.7679C51.068 53.9816 80.2762 55.3948 119.566 78.102C157.82 100.15 186.746 132.939 206.344 176.28C225.847 219.716 235.646 273.139 235.646 336.549ZM89.8871 252.41C89.8871 294.433 92.1481 324.583 96.6707 342.862C101.193 361.235 108.825 373.484 119.566 379.703C130.402 385.921 138.034 382.247 142.556 368.585C146.984 354.923 149.246 327.599 149.246 286.707C149.246 245.532 146.985 215.476 142.462 196.349C137.94 177.222 130.307 164.597 119.566 158.378C108.825 152.159 101.287 155.74 96.6707 169.025C92.1481 182.31 89.8871 210.105 89.8871 252.41Z" fill="#BFD9F6"/>
<path d="M208.323 44.1829C176.759 25.9983 154.24 20.6277 135.678 29.8613L133.228 30.7093L129.648 32.8763C129.177 33.159 128.612 33.4417 128.141 33.8186L40.9866 85.6401L41.0809 85.7342C59.3597 77.9138 83.5742 82.6249 113.913 100.15C141.708 116.262 164.604 138.027 182.506 165.351L277.198 109.761C259.108 82.1539 236.212 60.2947 208.323 44.1829Z" fill="white"/>
<path d="M121.355 155.269C115.419 151.877 110.049 151.029 105.338 152.725C100.156 154.704 96.1041 159.792 93.3717 167.8C88.6606 181.557 86.3994 209.257 86.3994 252.316C86.3994 294.433 88.7547 325.149 93.2773 343.616C98.0826 362.837 106.28 376.028 117.775 382.624C121.732 384.885 125.407 386.015 128.799 386.015C130.589 386.015 132.285 385.733 133.886 385.074C139.163 383.095 143.12 377.818 145.853 369.527C150.469 355.394 152.731 328.164 152.731 286.518C152.731 245.344 150.375 214.628 145.853 195.313C141.142 175.432 132.85 161.959 121.355 155.269ZM139.163 367.548C137.09 373.767 134.546 377.536 131.342 378.761C128.798 379.797 125.407 379.043 121.261 376.782C111.462 371.129 104.301 359.445 100.062 342.203C95.6332 324.207 93.3717 294.056 93.3717 252.599C93.3717 210.859 95.6331 183.158 99.9672 170.344C102.04 164.409 104.678 160.734 107.693 159.603C108.447 159.32 109.295 159.132 110.237 159.132C112.404 159.132 114.854 159.98 117.681 161.582C127.48 167.235 134.546 179.295 138.88 197.291C143.309 216.041 145.57 246.192 145.57 286.801C145.758 327.033 143.497 354.263 139.163 367.548Z" fill="#1F234E"/>
<path d="M326.663 204.452L309.044 151.877L220.382 203.227C217.178 193.334 213.598 183.818 209.547 174.867C189.76 131.054 160.08 97.4175 121.356 75.0872C80.6524 51.6262 49.7481 50.4014 29.5849 71.4126C9.7043 92.0469 0 135.011 0 202.568C0 265.696 9.98696 319.778 29.5849 363.214C49.277 406.838 78.9565 440.381 117.87 462.806C139.446 475.243 158.291 481.461 174.214 481.461C188.347 481.461 200.125 476.562 209.641 466.857C211.714 464.69 213.692 462.24 215.576 459.602L276.349 425.306L308.949 399.395L323.648 357.561L330.243 294.433L326.663 204.452ZM121.356 456.587C83.7617 434.916 55.0244 402.504 35.9918 360.199C16.7708 317.705 7.06655 264.659 7.06655 202.474C7.06655 137.744 16.3943 95.2504 34.6732 76.2178C42.7761 67.7379 53.0458 63.5922 65.4829 63.5922C80.0871 63.5922 97.6122 69.434 117.87 81.2116C155.275 102.788 184.013 135.294 203.14 177.788C222.361 220.47 232.159 273.893 232.159 336.55C232.159 400.902 222.926 443.113 204.553 461.863C186.839 480.048 158.856 478.258 121.356 456.587Z" fill="#1F234E"/>
</svg>
