<svg width="795" height="1023" viewBox="0 0 795 1023" fill="none" xmlns="http://www.w3.org/2000/svg">
<g opacity="0.02">
<path fill-rule="evenodd" clip-rule="evenodd" d="M556.488 9.03811C646.818 27.1865 729.787 71.9837 794.91 137.764L695.055 238.627C649.683 192.796 591.873 161.584 528.937 148.94C466.008 136.294 400.776 142.785 341.491 167.588C282.209 192.392 231.54 234.396 195.891 288.286C160.242 342.18 141.214 405.539 141.214 470.356C141.214 535.173 160.242 598.532 195.891 652.42C231.54 706.314 282.209 748.318 341.491 773.121C352.245 777.621 363.191 781.516 374.287 784.806L330.197 920.373C315.752 915.934 301.485 910.781 287.451 904.908C202.366 869.309 129.642 809.022 78.4756 731.674C27.3095 654.319 0 563.381 0 470.356C0 377.325 27.3095 286.387 78.4756 209.04C129.642 131.691 202.366 71.4037 287.451 35.8037C372.536 0.203727 466.163 -9.11086 556.488 9.03811ZM437.786 939.866C477.331 942.261 517.224 939.563 556.488 931.671C646.818 913.526 729.787 868.729 794.91 802.944L695.055 702.081C655.084 742.458 605.468 771.482 551.2 786.469L437.786 939.866Z" fill="black"/>
<path fill-rule="evenodd" clip-rule="evenodd" d="M242.056 613.87L354.767 268.344H523.312L447.842 505.138H501.552L521.766 442.934H690.311L633.958 615.437L333.568 1022.12L466.221 613.87H413.188H363.555H242.056Z" fill="black"/>
</g>
</svg>
