<svg width="147" height="52" viewBox="0 0 147 52" fill="none" xmlns="http://www.w3.org/2000/svg">
<path d="M18.0201 10H24.2471V38.38L19.0874 41.3599H5.15971L0 38.38V10H6.22696V35.5767H18.0153L18.0201 10Z" fill="#0066DD"/>
<path d="M31.6908 25.5698V12.9799L36.8521 10H48.106L53.2657 12.9799V18.8959H47.0388V15.333H37.9194V22.7616H48.106L53.2657 25.7431V38.5987L48.106 41.5785H36.4068L31.2471 38.5987V32.681H37.474V36.2439H47.0388V28.5448H36.8521L31.6908 25.5698Z" fill="#0066DD"/>
<path d="M84.508 38.1566L79.3483 41.1364H60.2657V10H79.3483L84.508 12.9799V38.1566ZM66.4927 15.3379V35.7986H78.2794V15.3379H66.4927Z" fill="#0066DD"/>
<path d="M108.19 32.2421H114.417V38.6035L109.258 41.5834H96.6693L91.5079 38.6035V12.9799L96.6693 10H109.258L114.417 12.9799V19.3413H108.19V15.3379H97.7365V36.2456H108.19V32.2421Z" fill="#0066DD"/>
<path d="M127.8 10H137.287L133.292 23.0515H136.223L137.287 19.6587H146.975L143.755 29.2898L126.765 52L134.189 29.3173H121.417L127.8 10Z" fill="#0066DD"/>
</svg>
